<svg xmlns="http://www.w3.org/2000/svg" width="200" height="200" viewBox="0 0 200 200">
  <!-- Dark Background -->
  <rect width="200" height="200" fill="#0c1023" />
  
  <!-- Subtle Grid Pattern -->
  <path d="M0 20 h200 M0 40 h200 M0 60 h200 M0 80 h200 M0 100 h200 M0 120 h200 M0 140 h200 M0 160 h200 M0 180 h200" stroke="#151f38" stroke-width="0.5" />
  <path d="M20 0 v200 M40 0 v200 M60 0 v200 M80 0 v200 M100 0 v200 M120 0 v200 M140 0 v200 M160 0 v200 M180 0 v200" stroke="#151f38" stroke-width="0.5" />
  
  <!-- Main Browser Window -->
  <linearGradient id="windowGradient" x1="0%" y1="0%" x2="100%" y2="100%">
    <stop offset="0%" stop-color="#2a3757" />
    <stop offset="100%" stop-color="#121a2f" />
  </linearGradient>
  <rect x="20" y="20" width="160" height="120" rx="8" fill="url(#windowGradient)" />
  
  <!-- Browser Header -->
  <rect x="20" y="20" width="160" height="20" rx="8" fill="#151f38" />
  <rect x="20" y="30" width="160" height="10" rx="0" fill="#151f38" />
  
  <!-- Browser Controls -->
  <circle cx="30" cy="30" r="3" fill="#ff6464" />
  <circle cx="40" cy="30" r="3" fill="#ffbd44" />
  <circle cx="50" cy="30" r="3" fill="#00ca56" />
  
  <!-- URL Bar -->
  <rect x="65" y="25" width="100" height="10" rx="5" fill="#0f1628" />
  <text x="115" y="32" font-family="Arial" font-size="5" fill="#8887" text-anchor="middle">portfolio.uhadev.com</text>
  
  <!-- Main Content Area -->
  <rect x="20" y="40" width="160" height="100" fill="#0c1023" />
  
  <!-- Header Section -->
  <rect x="30" y="50" width="140" height="30" rx="2" fill="#151f38" />
  
  <!-- Logo -->
  <text x="45" y="70" font-family="Arial" font-weight="bold" font-size="10" fill="#00eeff">@UHADEV</text>
  
  <!-- Navigation -->
  <rect x="110" y="58" width="10" height="4" rx="2" fill="#fff" opacity="0.7" />
  <rect x="125" y="58" width="10" height="4" rx="2" fill="#fff" opacity="0.7" />
  <rect x="140" y="58" width="10" height="4" rx="2" fill="#fff" opacity="0.7" />
  <rect x="155" y="58" width="10" height="4" rx="2" fill="#00eeff" />
  
  <!-- Hero Section -->
  <text x="100" y="95" font-family="Arial" font-weight="bold" font-size="9" fill="#fff" text-anchor="middle">Mobile App &amp; Web Developer</text>
  <text x="100" y="105" font-family="Arial" font-size="5" fill="#8887" text-anchor="middle">Building modern digital experiences and applications</text>
  
  <!-- Neon Button -->
  <rect x="80" y="115" width="40" height="10" rx="5" fill="#151f38" stroke="#00eeff" stroke-width="1" />
  <text x="100" y="122" font-family="Arial" font-size="5" fill="#00eeff" text-anchor="middle">View Projects</text>
  
  <!-- Glowing Elements -->
  <circle cx="30" cy="125" r="5" fill="#151f38" />
  <circle cx="30" cy="125" r="3" fill="#ff00ee" opacity="0.5" />
  
  <circle cx="170" cy="125" r="5" fill="#151f38" />
  <circle cx="170" cy="125" r="3" fill="#00eeff" opacity="0.5" />
  
  <!-- Project Section Preview -->
  <rect x="35" y="150" width="40" height="35" rx="4" fill="#151f38" />
  <rect x="38" y="155" width="34" height="10" rx="2" fill="#1e2a4a" />
  <text x="55" y="162" font-family="Arial" font-size="4" fill="#fff" text-anchor="middle">Project 1</text>
  <rect x="38" y="168" width="34" height="2" rx="1" fill="#00eeff" opacity="0.5" />
  <rect x="38" y="173" width="25" height="2" rx="1" fill="#fff" opacity="0.3" />
  <rect x="38" y="178" width="20" height="2" rx="1" fill="#fff" opacity="0.3" />
  
  <rect x="80" y="150" width="40" height="35" rx="4" fill="#151f38" />
  <rect x="83" y="155" width="34" height="10" rx="2" fill="#1e2a4a" />
  <text x="100" y="162" font-family="Arial" font-size="4" fill="#fff" text-anchor="middle">Project 2</text>
  <rect x="83" y="168" width="34" height="2" rx="1" fill="#ff00ee" opacity="0.5" />
  <rect x="83" y="173" width="25" height="2" rx="1" fill="#fff" opacity="0.3" />
  <rect x="83" y="178" width="20" height="2" rx="1" fill="#fff" opacity="0.3" />
  
  <rect x="125" y="150" width="40" height="35" rx="4" fill="#151f38" />
  <rect x="128" y="155" width="34" height="10" rx="2" fill="#1e2a4a" />
  <text x="145" y="162" font-family="Arial" font-size="4" fill="#fff" text-anchor="middle">Project 3</text>
  <rect x="128" y="168" width="34" height="2" rx="1" fill="#00eeff" opacity="0.5" />
  <rect x="128" y="173" width="25" height="2" rx="1" fill="#fff" opacity="0.3" />
  <rect x="128" y="178" width="20" height="2" rx="1" fill="#fff" opacity="0.3" />
  
  <!-- Coding Elements -->
  <path d="M12 140 l8 -4 l-8 -4" fill="none" stroke="#00eeff" stroke-width="1" />
  <path d="M188 120 l-8 4 l8 4" fill="none" stroke="#ff00ee" stroke-width="1" />
  
  <!-- Floating Elements -->
  <rect x="175" y="100" width="15" height="15" rx="2" fill="none" stroke="#00eeff" stroke-width="0.5" opacity="0.7" />
  <rect x="175" y="100" width="15" height="15" rx="2" transform="rotate(45 182.5 107.5)" fill="none" stroke="#ff00ee" stroke-width="0.5" opacity="0.7" />
  
  <rect x="10" y="90" width="15" height="15" rx="2" fill="none" stroke="#00eeff" stroke-width="0.5" opacity="0.7" />
  <rect x="10" y="90" width="15" height="15" rx="2" transform="rotate(45 17.5 97.5)" fill="none" stroke="#ff00ee" stroke-width="0.5" opacity="0.7" />
</svg> 